<?xml version="1.0" encoding="utf-8"?>
<!-- Generator: Adobe Illustrator 26.1.0, SVG Export Plug-In . SVG Version: 6.00 Build 0)  -->
<svg version="1.1" id="Layer_1" xmlns="http://www.w3.org/2000/svg" xmlns:xlink="http://www.w3.org/1999/xlink" x="0px" y="0px"
	 viewBox="0 0 3000 3000" style="enable-background:new 0 0 3000 3000;" xml:space="preserve">
<style type="text/css">
	.st0{fill:#E00C1A;}
</style>
<g>
	<path className="st0" d="M1815.1,1400c-5.3-3.6-14.4-5.4-27.4-5.4h-63.1l-24,100.9c16.4-6.3,31.7-12.6,46-18.9
		c14.3-6.3,26.7-12.6,37.2-18.9c10.5-6.3,18.9-12.6,25.2-18.9c6.3-6.3,10.1-12.4,11.4-18.3C1822.1,1410.4,1820.4,1403.6,1815.1,1400
		z"/>
	<path className="st0" d="M1355.7,1394.6H1309l-49.8,210.6h46.7c30.3,0,54.6-8.5,72.8-25.5c18.3-17,31.6-43.6,40-79.8
		c8.4-36.2,7.6-62.8-2.5-79.8C1406.1,1403.1,1385.9,1394.6,1355.7,1394.6z"/>
	<path className="st0" d="M2999.6,1201.4H1L2.2,1798H3000L2999.6,1201.4z M442,1704.9c-19.3,10.9-41.8,18.2-67.5,21.8
		c-25.7,3.6-55.1,5.4-88.3,5.4c-33.2,0-61.7-2-85.5-6c-23.8-4-42.6-11.7-56.4-23c-13.9-11.4-22.5-27.3-25.9-47.9
		c-3.4-20.6-1-47.7,6.9-81.4l34.7-147.6c8-33.6,18.5-60.8,31.5-81.4c13-20.6,29.1-36.6,48.2-47.9c19.1-11.4,41.6-19,67.5-23
		c25.9-4,55.4-6,88.6-6c33.2,0,61.8,1.8,85.8,5.4c24,3.6,42.9,10.8,56.8,21.8c13.9,10.9,22.5,26.8,25.9,47.6
		c3.4,20.8,0.8,48.7-7.6,83.6l-34.7,147.6c-8,34.5-18.5,62.2-31.5,83.2C477.6,1678,461.4,1694,442,1704.9z M520.2,1720.7
		l104.1-441.5h127.4l-104.1,441.5H520.2z M971.2,1720.7H686.1l104.1-441.5h127.4l-76.9,326.1h186.7L971.2,1720.7z M1453.4,1672.7
		c-20.6,17.2-43.3,29.5-68.1,36.9c-24.8,7.4-51.1,11-78.8,11h-201.2l76.3-326.7h-64.3l56.1-114.8h237.1c27.7,0,52.2,3.7,73.5,11
		c21.2,7.4,38,19.7,50.5,36.9c12.4,17.2,19.9,39.9,22.4,68.1c2.5,28.2-1.1,63.1-10.7,104.7c-9.7,41.6-22.4,76.5-38.2,104.7
		C1492.2,1632.8,1474,1655.5,1453.4,1672.7z M1917.6,1503.1c-12.2,11.8-26,22.6-41.3,32.5c-15.4,9.9-31.6,19.2-48.9,28.1l78.2,157
		H1753l-67.5-162.1l-37.8,162.1h-127.4l104.1-441.5h190.5c60.1,0,103,12.7,128.7,38.2c25.6,25.4,33.4,60,23.3,103.7
		c-3.8,15.6-9.9,30.2-18.3,43.8C1940.1,1478.6,1929.8,1491.3,1917.6,1503.1z M2051.9,1720.7h-127.4l104.1-441.5H2156L2051.9,1720.7z
		 M2323.7,1713.7c-15.6,4.2-33.2,6.3-53,6.3c-19.8,0-36.5-2.1-50.1-6.3c-13.7-4.2-20.9-12.4-21.8-24.6l-29.6-409.9h135l3.8,282.5
		l137.5-282.5h135l-223.3,409.9C2350.4,1701.3,2339.3,1709.5,2323.7,1713.7z M2847.8,1394.6h-153.9l-11.4,47.9h135l-56.1,114.8h-106
		l-11.4,47.9h186.7l-56.1,115.4h-285.1l104.1-441.5h309.7L2847.8,1394.6z"/>
	<path className="st0" d="M369.5,1378.8c-26.5,0-46,4.2-58.7,12.6c-12.6,8.4-20.6,20-24,34.7l-34.7,147.6c-3.4,14.7-0.7,26.3,7.9,34.7
		c8.6,8.4,26.2,12.6,52.7,12.6s46-4.2,58.7-12.6c12.6-8.4,20.6-20,24-34.7l34.7-147.6c3.4-14.7,0.8-26.3-7.6-34.7
		C414.1,1383.1,396.4,1378.8,369.5,1378.8z"/>
</g>
</svg>
